HIERARCHY
ROOT Pelvis
{
	OFFSET 0.000000 0.000000 0.000000
	CHANNELS 6 Xposition Yposition Zposition Xrotation Yrotation Zrotation
	JOINT LeftUpLeg_virtual
	{
		OFFSET 0.000000 0.000000 0.000000
		CHANNELS 3 Xrotation Yrotation Zrotation
		JOINT LeftUpLeg
		{
			OFFSET 8.479700 -4.795502 -0.379100
			CHANNELS 3 Xrotation Yrotation Zrotation
			JOINT LeftLeg
			{
				OFFSET 0.024144 -32.555107 0.112900
				CHANNELS 3 Xrotation Yrotation Zrotation
				JOINT LeftFoot
				{
					OFFSET -0.024144 -32.638630 -3.012600
					CHANNELS 3 Xrotation Yrotation Zrotation
					JOINT LeftToeBase
					{
						OFFSET 0.970200 -13.225400 11.864200
						CHANNELS 3 Xrotation Yrotation Zrotation
						End Site
						{
							OFFSET 0 0 0
						}
					}
				}
			}
		}
	}
	JOINT RightUpLeg_virtual
	{
		OFFSET 0.000000 0.000000 0.000000
		CHANNELS 3 Xrotation Yrotation Zrotation
		JOINT RightUpLeg
		{
			OFFSET -8.479700 -4.795502 -0.379100
			CHANNELS 3 Xrotation Yrotation Zrotation
			JOINT RightLeg
			{
				OFFSET -0.023144 -32.555092 0.112900
				CHANNELS 3 Xrotation Yrotation Zrotation
				JOINT RightFoot
				{
					OFFSET 0.023144 -32.638641 -3.012700
					CHANNELS 3 Xrotation Yrotation Zrotation
					JOINT RightToeBase
					{
						OFFSET -0.970200 -13.225400 11.864200
						CHANNELS 3 Xrotation Yrotation Zrotation
						End Site
						{
							OFFSET 0 0 0
						}
					}
				}
			}
		}
	}
	JOINT Hips_virtual
	{
		OFFSET 0.000000 0.000000 0.000000
		CHANNELS 3 Xrotation Yrotation Zrotation
		JOINT Hips
		{
			OFFSET -0.000000 -0.000000 -0.000000
			CHANNELS 3 Xrotation Yrotation Zrotation
			JOINT Spine
			{
				OFFSET 0.000000 7.722000 1.166200
				CHANNELS 3 Xrotation Yrotation Zrotation
				JOINT Spine1
				{
					OFFSET 0.000000 12.024101 0.248800
					CHANNELS 3 Xrotation Yrotation Zrotation
					JOINT Spine2
					{
						OFFSET 0.000000 11.502998 -0.491200
						CHANNELS 3 Xrotation Yrotation Zrotation
						JOINT Neck_virtual
						{
							OFFSET 0.000000 0.000000 0.000000
							CHANNELS 3 Xrotation Yrotation Zrotation
							JOINT Neck
							{
								OFFSET 0.000000 18.430702 -3.123100
								CHANNELS 3 Xrotation Yrotation Zrotation
								JOINT Head
								{
									OFFSET 0.000000 9.051102 1.034000
									CHANNELS 3 Xrotation Yrotation Zrotation
									End Site
									{
										OFFSET 0 0 0
									}
								}
							}
						}
						JOINT LeftShoulder_virtual
						{
							OFFSET 0.000000 0.000000 0.000000
							CHANNELS 3 Xrotation Yrotation Zrotation
							JOINT LeftShoulder
							{
								OFFSET 6.197800 13.665199 -4.064700
								CHANNELS 3 Xrotation Yrotation Zrotation
								JOINT LeftArm
								{
									OFFSET 7.778100 -0.187103 -1.709300
									CHANNELS 3 Xrotation Yrotation Zrotation
									JOINT LeftForeArm
									{
										OFFSET 22.049376 0.000000 0.000000
										CHANNELS 3 Xrotation Yrotation Zrotation
										JOINT LeftHand
										{
											OFFSET 23.009392 0.000000 0.000000
											CHANNELS 3 Xrotation Yrotation Zrotation
											End Site
											{
												OFFSET 0 0 0
											}
										}
									}
								}
							}
						}
						JOINT RightShoulder_virtual
						{
							OFFSET 0.000000 0.000000 0.000000
							CHANNELS 3 Xrotation Yrotation Zrotation
							JOINT RightShoulder
							{
								OFFSET -6.197800 13.665199 -4.064700
								CHANNELS 3 Xrotation Yrotation Zrotation
								JOINT RightArm
								{
									OFFSET -7.778100 -0.187103 -1.709300
									CHANNELS 3 Xrotation Yrotation Zrotation
									JOINT RightForeArm
									{
										OFFSET -22.049376 0.000000 0.000000
										CHANNELS 3 Xrotation Yrotation Zrotation
										JOINT RightHand
										{
											OFFSET -23.009392 0.000000 0.000000
											CHANNELS 3 Xrotation Yrotation Zrotation
											End Site
											{
												OFFSET 0 0 0
											}
										}
									}
								}
							}
						}
					}
				}
			}
		}
	}
}
MOTION
Frames: 11
Frame Time: 0.03333333
-0.169131 73.868347 0.174997 0.000000 0.000000 0.000000 3.016506 -58.257340 6.570146 -35.247895 10.179372 24.280079 43.157042 -7.473708 -9.787614 -9.604469 -2.815516 -8.045404 0.000000 0.000000 0.000000 3.016506 -58.257340 6.570146 -32.837077 -8.277063 -25.536440 48.053796 2.410779 -7.553277 -19.169431 2.844735 20.706921 0.000000 0.000000 0.000000 3.016506 -58.257340 6.570146 0.000000 -0.000004 0.000000 11.191592 0.111594 -2.787685 8.434577 0.027702 -5.592320 0.000000 0.000000 0.000000 8.457057 0.027875 -5.591870 -21.555741 25.063389 12.062605 0.000000 0.000000 0.000000 8.457057 0.027875 -5.591870 -6.221673 -11.503783 -4.023838 -23.061657 9.569074 -36.639737 0.046293 -43.170825 -0.011025 0.000000 0.000000 0.000000 8.457057 0.027875 -5.591870 -5.488248 10.658261 2.466553 -41.473161 -26.756168 30.079477 -155.046237 68.136103 156.693282 0.000000 0.000000 0.000000 
-0.159659 73.869652 0.206575 0.000000 0.000000 0.000000 3.040089 -58.227376 6.589254 -35.274310 10.182554 24.253962 43.184561 -7.494322 -9.794337 -9.626901 -2.818707 -8.006185 0.000000 0.000000 0.000000 3.040089 -58.227376 6.589254 -32.813356 -8.274922 -25.562751 48.004707 2.389716 -7.550131 -19.150577 2.839986 20.746503 0.000000 0.000000 0.000000 3.040089 -58.227376 6.589254 0.000000 0.000004 0.000000 11.191603 0.110793 -2.790816 8.434584 0.027706 -5.592322 0.000000 0.000000 0.000000 8.457054 0.027858 -5.591857 -21.547782 25.033956 12.079128 0.000000 0.000000 0.000000 8.457054 0.027858 -5.591857 -6.224953 -11.506076 -4.040194 -23.270318 9.617860 -36.667860 0.069793 -43.129537 0.031140 0.000000 0.000000 0.000000 8.457054 0.027858 -5.591857 -5.494059 10.657922 2.495531 -41.054423 -26.626299 30.531591 -151.189912 67.351724 152.484356 0.000000 0.000000 0.000000 
-0.130106 73.873817 0.296541 0.000000 0.000000 0.000000 3.061362 -58.196900 6.607643 -35.304855 10.197120 24.187261 43.274333 -7.513194 -9.810677 -9.705187 -2.824444 -7.915691 0.000000 0.000000 0.000000 3.061362 -58.196900 6.607643 -32.748660 -8.272863 -25.645518 47.872147 2.394866 -7.537332 -19.088712 2.833379 20.832446 0.000000 0.000000 0.000000 3.061362 -58.196900 6.607643 0.000000 0.000001 0.000000 11.191640 0.108517 -2.800187 8.427926 0.021800 -5.590526 0.000000 0.000000 0.000000 8.450531 0.024358 -5.590738 -21.522814 24.948425 12.125789 0.000000 0.000000 0.000000 8.450531 0.024358 -5.590738 -6.234551 -11.512588 -4.088058 -23.549889 9.594470 -36.642572 0.138476 -42.979273 0.153735 0.000000 0.000000 0.000000 8.450531 0.024358 -5.590738 -5.511180 10.663436 2.580818 -40.669439 -26.535567 30.926598 -149.908118 67.121560 150.633661 0.000000 0.000000 0.000000 
-0.081768 73.880684 0.441023 0.000000 0.000000 0.000000 3.082025 -58.166314 6.626441 -35.338702 10.223668 24.081965 43.419533 -7.529427 -9.835454 -9.835619 -2.832813 -7.774395 0.000000 0.000000 0.000000 3.082025 -58.166314 6.626441 -32.643926 -8.269920 -25.778838 47.658113 2.420694 -7.515242 -18.986323 2.825521 20.960396 0.000000 0.000000 0.000000 3.082025 -58.166314 6.626441 0.000000 0.000000 0.000000 11.191387 0.100863 -2.814571 8.417017 0.011630 -5.587464 0.000000 0.000000 0.000000 8.439842 0.017433 -5.588560 -21.483276 24.810491 12.200238 0.000000 0.000000 0.000000 8.439842 0.017433 -5.588560 -6.250115 -11.523032 -4.165733 -23.890549 9.502011 -36.578897 0.247198 -42.732317 0.348575 0.000000 0.000000 0.000000 8.439842 0.017433 -5.588560 -5.532806 10.672761 2.720144 -40.331820 -26.475736 31.254082 -148.395531 66.939167 148.541820 0.000000 0.000000 0.000000 
-0.015936 73.890137 0.635981 0.000000 0.000000 0.000000 3.103769 -58.135852 6.646836 -35.375377 10.261657 23.940561 43.614494 -7.542144 -9.867462 -10.013778 -2.844403 -7.587139 0.000000 0.000000 0.000000 3.103769 -58.135852 6.646836 -32.503019 -8.266655 -25.959112 47.367362 2.466798 -7.484357 -18.843604 2.816776 21.129795 0.000000 0.000000 0.000000 3.103769 -58.135852 6.646836 0.000000 -0.000002 0.000000 11.191111 0.090427 -2.834229 8.401984 -0.002262 -5.583286 0.000000 0.000000 0.000000 8.425052 0.008621 -5.583561 -21.431266 24.624169 12.298790 0.000000 0.000000 0.000000 8.425052 0.008621 -5.583561 -6.271308 -11.537095 -4.271445 -24.278450 9.356728 -36.480115 0.390052 -42.425563 0.606456 0.000000 0.000000 0.000000 8.425052 0.008621 -5.583561 -5.562382 10.685542 2.911043 -40.035437 -26.442449 31.521262 -146.616458 66.782584 146.173698 0.000000 0.000000 0.000000 
0.066047 73.902222 0.877432 0.000000 0.000000 0.000000 3.128294 -58.105901 6.669900 -35.414049 10.310759 23.765665 43.852171 -7.550626 -9.905611 -10.233207 -2.859054 -7.359135 0.000000 0.000000 0.000000 3.128294 -58.105901 6.669900 -32.327241 -8.265352 -26.181572 47.000318 2.530349 -7.444653 -18.662558 2.808317 21.335078 0.000000 0.000000 0.000000 3.128294 -58.105901 6.669900 0.000000 -0.000001 0.000000 11.190780 0.076681 -2.858741 8.382936 -0.018411 -5.573758 0.000000 0.000000 0.000000 8.406371 -0.002388 -5.576984 -21.369910 24.392670 12.418423 0.000000 0.000000 0.000000 8.406371 -0.002388 -5.576984 -6.297782 -11.554489 -4.403449 -24.699871 9.172106 -36.353190 0.562007 -42.085341 0.918817 0.000000 0.000000 0.000000 8.406371 -0.002388 -5.576984 -5.599731 10.701709 3.151202 -39.780794 -26.426374 31.729599 -151.285903 68.328659 149.732828 0.000000 0.000000 0.000000 
0.162920 73.916634 1.161432 0.000000 0.000000 0.000000 3.157259 -58.076743 6.696758 -35.454020 10.370653 23.559399 44.126673 -7.554037 -9.948609 -10.490114 -2.877189 -7.094014 0.000000 0.000000 0.000000 3.157259 -58.076743 6.696758 -32.119456 -8.267048 -26.442055 46.559825 2.609217 -7.396472 -18.443843 2.800992 21.573793 0.000000 0.000000 0.000000 3.157259 -58.076743 6.696758 0.000000 -0.000001 0.000000 11.190326 0.060783 -2.888004 8.360030 -0.037548 -5.562299 0.000000 0.000000 0.000000 8.383857 -0.015512 -5.569303 -21.297536 24.120545 12.555809 0.000000 0.000000 0.000000 8.383857 -0.015512 -5.569303 -6.329112 -11.574848 -4.560060 -25.140962 8.962311 -36.205515 0.758578 -41.741233 1.278146 0.000000 0.000000 0.000000 8.383857 -0.015512 -5.569303 -5.644383 10.721014 3.438212 -39.567767 -26.416501 31.881216 -150.463590 68.711867 148.189683 0.000000 0.000000 0.000000 
0.273351 73.933395 1.483936 0.000000 0.000000 0.000000 3.192344 -58.048623 6.728508 -35.493863 10.441565 23.323703 44.430025 -7.550667 -9.995045 -10.779352 -2.898932 -6.794943 0.000000 0.000000 0.000000 3.192344 -58.048623 6.728508 -31.881820 -8.273655 -26.736174 46.047134 2.701224 -7.339726 -18.187966 2.795752 21.842539 0.000000 0.000000 0.000000 3.192344 -58.048623 6.728508 0.000000 -0.000001 0.000000 11.189782 0.042380 -2.921667 8.333405 -0.059483 -5.548993 0.000000 0.000000 0.000000 8.357673 -0.030639 -5.560534 -21.218789 23.811177 12.708251 0.000000 0.000000 0.000000 8.357673 -0.030639 -5.560534 -6.365041 -11.597866 -4.739471 -25.587487 8.742411 -36.044308 0.975294 -41.422744 1.677660 0.000000 0.000000 0.000000 8.357673 -0.030639 -5.560534 -5.696099 10.743286 3.769727 -39.396323 -26.401552 31.977525 -149.352536 69.149259 146.346556 0.000000 0.000000 0.000000 
0.395741 73.952263 1.841299 0.000000 0.000000 0.000000 3.244775 -58.023721 6.773030 -35.538075 10.521133 23.062844 44.758117 -7.537963 -10.043897 -11.096313 -2.924264 -6.469735 0.000000 0.000000 0.000000 3.244775 -58.023721 6.773030 -31.620747 -8.285370 -27.058517 45.462992 2.806704 -7.274643 -17.895449 2.792006 22.144406 0.000000 0.000000 0.000000 3.244775 -58.023721 6.773030 0.000000 0.000002 0.000000 11.189235 0.022086 -2.959379 8.303195 -0.083934 -5.533894 0.000000 0.000000 0.000000 8.327965 -0.047471 -5.550306 -21.135269 23.468072 12.872206 0.000000 0.000000 0.000000 8.327965 -0.047471 -5.550306 -6.405209 -11.623202 -4.939974 -26.020813 8.535687 -35.875657 1.208655 -41.176881 2.113465 0.000000 0.000000 0.000000 8.327965 -0.047471 -5.550306 -5.754565 10.768358 4.143345 -39.267420 -26.376625 32.016676 -147.877448 69.610071 144.131717 0.000000 0.000000 0.000000 
0.529253 73.973152 2.229059 0.000000 0.000000 0.000000 3.302117 -58.003756 6.820689 -35.577612 10.611454 22.778216 45.103352 -7.515013 -10.093732 -11.436687 -2.953621 -6.120312 0.000000 0.000000 0.000000 3.302117 -58.003756 6.820689 -31.333336 -8.304608 -27.407476 44.810545 2.926197 -7.200763 -17.567317 2.790737 22.477010 0.000000 0.000000 0.000000 3.302117 -58.003756 6.820689 0.000000 0.000002 0.000000 11.188525 -0.000167 -3.001106 8.269546 -0.110740 -5.517084 0.000000 0.000000 0.000000 8.294828 -0.065979 -5.538839 -21.044911 23.096015 13.044658 0.000000 0.000000 0.000000 8.294828 -0.065979 -5.538839 -6.449182 -11.650535 -5.159866 -26.430621 8.352351 -35.708372 1.455357 -41.017817 2.582334 0.000000 0.000000 0.000000 8.294828 -0.065979 -5.538839 -5.819460 10.796012 4.556721 -39.177572 -26.317002 32.007322 -146.024677 70.094413 141.526874 0.000000 0.000000 0.000000 
0.672625 73.995918 2.643082 0.000000 0.000000 0.000000 3.370311 -58.019001 6.876122 -35.605694 10.710720 22.478095 45.468914 -7.456443 -10.142101 -11.799976 -2.984944 -5.762203 0.000000 0.000000 0.000000 3.370311 -58.019001 6.876122 -31.036284 -8.329259 -27.774350 44.093884 3.083342 -7.116863 -17.199632 2.797834 22.817137 0.000000 0.000000 0.000000 3.370311 -58.019001 6.876122 0.000000 0.000001 0.000000 11.187581 -0.024755 -3.046044 8.232582 -0.139606 -5.498640 0.000000 0.000000 0.000000 8.258411 -0.085966 -5.526184 -20.954713 22.697885 13.223230 0.000000 0.000000 0.000000 8.258411 -0.085966 -5.526184 -6.496715 -11.679509 -5.397384 -26.786610 8.241242 -35.539892 1.712351 -40.991923 3.084319 0.000000 0.000000 0.000000 8.258411 -0.085966 -5.526184 -5.890497 10.826120 5.007484 -39.126944 -26.166279 31.964585 -150.989268 72.390757 145.352887 0.000000 0.000000 0.000000 
